<?xml version="1.0" standalone="no"?><!DOCTYPE svg PUBLIC "-//W3C//DTD SVG 1.1//EN" "http://www.w3.org/Graphics/SVG/1.1/DTD/svg11.dtd"><svg class="icon" width="200px" height="200.00px" viewBox="0 0 1024 1024" version="1.1" xmlns="http://www.w3.org/2000/svg"><path d="M365.92 2.72h292.16Q1024 2.72 1024 366.4v291.2q0 363.68-365.28 363.68h-292.8Q0 1021.28 0 657.6V366.4Q0 2.88 365.92 2.72z" fill="#FFF0F0" /><path d="M340.32 597.28v21.28L209.12 640H149.44Q144 577.28 144 516.96v-9.6c0-35.36 1.92-76.48 5.76-123.68H336v21.28h-125.12Q208 446.24 208 506.72t3.36 112zM370.72 384H560a342.24 342.24 0 0 1 8 67.04 605.44 605.44 0 0 1-6.72 76.96h-44.16c6.88 14.56 16 33.6 29.6 57.12 11.2 20.96 22.08 39.52 32 55.2h-72.8a1073.6 1073.6 0 0 1-53.44-112H432v112h-61.28z m129.12 123.68a449.44 449.44 0 0 0 3.36-52.64 229.76 229.76 0 0 0-4.64-49.76H432v102.4zM880 384v256h-61.12V422.56L752 640h-48l-75.36-220.8V640h-22.4V384h74.72l66.24 190.72L808.32 384z" fill="#FF5C64" /></svg>