<?xml version="1.0" standalone="no"?><!DOCTYPE svg PUBLIC "-//W3C//DTD SVG 1.1//EN" "http://www.w3.org/Graphics/SVG/1.1/DTD/svg11.dtd"><svg class="icon" width="200px" height="200.00px" viewBox="0 0 1024 1024" version="1.1" xmlns="http://www.w3.org/2000/svg"><path d="M366.56 2.72h292.16Q1024 2.72 1024 366.4v291.2q0 363.68-365.12 363.68H366.56Q1.28 1021.28 1.28 657.6V366.4Q1.28 2.88 366.56 2.72z" fill="#FFF0F0" /><path d="M543.04 753.76a43.04 43.04 0 0 1-60.8 0l-256-256a43.2 43.2 0 0 1 0-61.12L392.48 270.4a43.04 43.04 0 0 1 60.8 0L512 329.44l59.04-59.04a43.2 43.2 0 0 1 61.12 0l166.88 166.24a43.2 43.2 0 0 1 0 61.12z m69.44-124.8l26.08-26.08-56.32-56.16 27.68-27.68L666.24 576l18.4-18.4-80-80-5.44 5.28a84.64 84.64 0 0 1-119.68 0l-29.44-29.28a43.2 43.2 0 0 1 0-61.12l34.72-34.72-62.08-61.92L250.88 467.2 512 728.96l21.12-21.28-56.16-56.32L505.28 624l56.16 56.32L584.8 656 528 600.48l27.68-27.68 56.32 56.16z" fill="#FF5C64" /></svg>