<?xml version="1.0" standalone="no"?><!DOCTYPE svg PUBLIC "-//W3C//DTD SVG 1.1//EN" "http://www.w3.org/Graphics/SVG/1.1/DTD/svg11.dtd"><svg class="icon" width="200px" height="200.00px" viewBox="0 0 1024 1024" version="1.1" xmlns="http://www.w3.org/2000/svg"><path d="M365.76 0h292.48Q1024 0 1024 365.76v292.48Q1024 1024 658.24 1024H365.76Q0 1024 0 658.24V365.76Q0 0 365.76 0z" fill="#F0FCF9" /><path d="M682.72 264a68 68 0 0 1 68.32 67.68v360.64a68 68 0 0 1-68.32 67.68h-296A68.16 68.16 0 0 1 320 704h27.52a50.72 50.72 0 0 0 2.4-101.28H318.4v-40h28.48a51.04 51.04 0 0 0 51.2-48V512a51.2 51.2 0 0 0-48.96-50.72H318.4v-39.36h28.48a51.04 51.04 0 0 0 51.2-48v-2.72a51.04 51.04 0 0 0-48.8-51.2H320a68.16 68.16 0 0 1 67.36-56.48z m-336 372a16.96 16.96 0 1 1 0 33.76h-56.64a16.96 16.96 0 1 1 0-33.76zM670.24 400a34.24 34.24 0 0 0-48 0L458.4 562.4a22.4 22.4 0 0 0-6.56 12.96L448 609.12a11.36 11.36 0 0 0 9.76 12.64h3.2l33.6-5.12a23.04 23.04 0 0 0 12.8-6.24L670.24 448a33.76 33.76 0 0 0 0-48z m-323.36 95.04a16.96 16.96 0 1 1 0 33.92h-56.8a16.96 16.96 0 1 1 0-33.92z m0-140.8a16.96 16.96 0 1 1 0 33.76h-56.8a16.96 16.96 0 1 1 0-33.76z" fill="#5DDAC4" /></svg>