<?xml version="1.0" standalone="no"?><!DOCTYPE svg PUBLIC "-//W3C//DTD SVG 1.1//EN" "http://www.w3.org/Graphics/SVG/1.1/DTD/svg11.dtd"><svg class="icon" width="200px" height="200.00px" viewBox="0 0 1024 1024" version="1.1" xmlns="http://www.w3.org/2000/svg"><path d="M365.76 0h292.48q365.76 0 365.76 365.76v292.48Q1024 1024 658.24 1024H365.76Q0 1024 0 658.24V365.76Q0 0 365.76 0z" fill="#FFF6F0" /><path d="M428.32 568.48a25.92 25.92 0 0 1-3.04 8.96l-17.12 29.44h246.56a23.2 23.2 0 0 1 0 46.24H369.76a23.04 23.04 0 0 1-23.2-23.04 2.4 2.4 0 0 1 0-1.12 22.24 22.24 0 0 1 3.04-13.12l28-48-4.32-16a35.2 35.2 0 0 1-2.08-5.76l-41.28-154.08a25.44 25.44 0 0 1-0.96-6.08l-17.92-66.4L256.96 304a22.88 22.88 0 0 1-16-28.48 23.2 23.2 0 0 1 28-16l66.88 17.92a23.2 23.2 0 0 1 16 17.76 8.96 8.96 0 0 1 0 1.92L368.96 352.8h334.08A30.72 30.72 0 0 1 733.92 384a26.88 26.88 0 0 1-1.12 8l-41.12 153.6a31.04 31.04 0 0 1-29.76 22.88zM392.8 764.8a46.24 46.24 0 1 1 46.24-46.24 46.24 46.24 0 0 1-46.24 46.24z m250.4 0A46.24 46.24 0 1 1 688.96 718.56a46.24 46.24 0 0 1-45.76 46.24z" fill="#FFA561" /><path d="M602.56 376.96m13.28 0l79.84 0q13.28 0 13.28 13.28l0 0.16q0 13.28-13.28 13.28l-79.84 0q-13.28 0-13.28-13.28l0-0.16q0-13.28 13.28-13.28Z" fill="#FFF6F0" /></svg>