<?xml version="1.0" standalone="no"?><!DOCTYPE svg PUBLIC "-//W3C//DTD SVG 1.1//EN" "http://www.w3.org/Graphics/SVG/1.1/DTD/svg11.dtd"><svg class="icon" width="200px" height="200.00px" viewBox="0 0 1024 1024" version="1.1" xmlns="http://www.w3.org/2000/svg"><path d="M365.76 0h292.48Q1024 0 1024 365.76v292.48Q1024 1024 658.24 1024H365.76Q0 1024 0 658.24V365.76Q0 0 365.76 0z" fill="#F0FCF9" /><path d="M704.96 320H319.04a60.32 60.32 0 0 0-64 55.36l242.08 132.16a51.84 51.84 0 0 0 43.04 0l228.8-129.28v-3.04a60.16 60.16 0 0 0-64-55.36z m0 0" fill="#5DDAC4" /><path d="M255.04 420.16v229.28a60.32 60.32 0 0 0 64 55.36h385.76a60.16 60.16 0 0 0 64-55.36V423.2l-201.28 118.4a108.96 108.96 0 0 1-97.28 0z m0 0" fill="#5DDAC4" /></svg>