<?xml version="1.0" standalone="no"?><!DOCTYPE svg PUBLIC "-//W3C//DTD SVG 1.1//EN" "http://www.w3.org/Graphics/SVG/1.1/DTD/svg11.dtd"><svg class="icon" width="200px" height="200.00px" viewBox="0 0 1024 1024" version="1.1" xmlns="http://www.w3.org/2000/svg"><path d="M365.92 2.72h292.16Q1024 2.72 1024 366.4v291.2q0 363.68-365.28 363.68h-292.8Q0 1021.28 0 657.6V366.4Q0 2.88 365.92 2.72z" fill="#E3FFEE" /><path d="M438.88 280.64h-109.44a48 48 0 0 0-48.8 48.8v109.44a48 48 0 0 0 48.8 48.8h109.44a48 48 0 0 0 48.8-48.8v-109.44a48 48 0 0 0-48.8-48.8z m256 0h-109.76a48 48 0 0 0-48 48.8v109.44a48 48 0 0 0 48 48.8h109.44a48 48 0 0 0 48.8-48.8v-109.44a48.96 48.96 0 0 0-48.8-48.8z m-256 256h-109.44a48 48 0 0 0-48.8 48v109.44a48 48 0 0 0 48.8 48.8h109.44a48 48 0 0 0 48.8-48.8v-108.96a48 48 0 0 0-48.8-48.8z m256 0h-109.76a48 48 0 0 0-48 48v109.44a48 48 0 0 0 48 48.8h109.44a48 48 0 0 0 48.8-48.8v-108.96a48.96 48.96 0 0 0-48.8-48.8z" fill="#5CE092" /></svg>