<?xml version="1.0" standalone="no"?><!DOCTYPE svg PUBLIC "-//W3C//DTD SVG 1.1//EN" "http://www.w3.org/Graphics/SVG/1.1/DTD/svg11.dtd"><svg class="icon" width="200px" height="200.00px" viewBox="0 0 1024 1024" version="1.1" xmlns="http://www.w3.org/2000/svg"><path d="M365.76 0h292.48Q1024 0 1024 365.76v292.48Q1024 1024 658.24 1024H365.76Q0 1024 0 658.24V365.76Q0 0 365.76 0z" fill="#FFF6F0" /><path d="M699.2 276.96H324.32a50.24 50.24 0 0 0-50.08 50.08v74.88h475.04v-74.88a50.24 50.24 0 0 0-50.08-50.08zM336 363.52a18.72 18.72 0 1 1 18.88-18.72A19.36 19.36 0 0 1 336 363.52z m62.56 0a18.72 18.72 0 1 1 18.72-18.72 18.72 18.72 0 0 1-18.72 18.72z m62.56 0A18.72 18.72 0 1 1 480 344.8a19.04 19.04 0 0 1-18.24 18.72zM274.72 434.56v262.4a50.24 50.24 0 0 0 50.08 50.08h374.88a50.24 50.24 0 0 0 50.08-50.08v-262.4z m197.12 116.64c-1.12 1.12-2.72 2.24-4.32 3.68l-8.32 6.4-8.32 5.92-6.88 4.96-4.32 3.04c-3.36 1.92-5.76 2.56-7.36 1.6a4.32 4.32 0 0 1-2.24-4.16V560h-27.52a39.68 39.68 0 0 0-16 4.32 42.72 42.72 0 0 0-12.32 8.96 41.28 41.28 0 0 0-8.32 12.64 37.76 37.76 0 0 0-3.04 15.04 39.36 39.36 0 0 0 3.36 16 40 40 0 0 0 9.28 13.12 44.32 44.32 0 0 0 30.56 12H432a16 16 0 0 1 5.44 0.96 21.44 21.44 0 0 1 4.96 2.72 14.08 14.08 0 0 1 3.52 4 10.88 10.88 0 0 1 1.28 4.96 8.48 8.48 0 0 1-1.44 4.8 14.72 14.72 0 0 1-3.52 4.16 18.72 18.72 0 0 1-4.96 2.72 13.44 13.44 0 0 1-5.6 1.12H400a74.4 74.4 0 0 1-24.8-6.88 68.64 68.64 0 0 1-20-14.4 67.68 67.68 0 0 1-12.96-22.24 64 64 0 0 1 0-48 68.64 68.64 0 0 1 13.28-20.32 70.24 70.24 0 0 1 20-14.24 72.48 72.48 0 0 1 24.48-6.72h30.24v-13.44a5.92 5.92 0 0 1 2.72-5.12c1.6-1.12 3.84 0 6.56 1.12s2.4 1.92 4.64 3.68l7.36 5.76 8.32 6.56 7.2 5.92 4.8 4.32a6.88 6.88 0 0 1 2.08 4.16 5.12 5.12 0 0 1-2.08 3.52zM674.08 656H542.4a12.96 12.96 0 0 1-2.88-25.76h134.56a12.96 12.96 0 0 1 2.88 25.76z m0-52.64H542.4a12.96 12.96 0 0 1 0-25.92h131.68a12.96 12.96 0 0 1 0 25.92z m0-52.8H542.4a12.96 12.96 0 0 1-2.88-25.76h134.56a12.96 12.96 0 0 1 2.88 25.76 8.64 8.64 0 0 1-2.88 0z" fill="#FFA561" /></svg>