<?xml version="1.0" standalone="no"?><!DOCTYPE svg PUBLIC "-//W3C//DTD SVG 1.1//EN" "http://www.w3.org/Graphics/SVG/1.1/DTD/svg11.dtd"><svg class="icon" width="200px" height="200.00px" viewBox="0 0 1024 1024" version="1.1" xmlns="http://www.w3.org/2000/svg"><path d="M365.132429 1.75698h291.978162Q1022.24302 1.75698 1022.24302 367.368585v291.658712q0 364.972703-365.132429 364.972703H365.132429Q0 1024 0 659.027297V367.368585Q0 1.75698 365.132429 1.75698z" fill="#F5F2FF" /><path d="M726.591171 749.591639h-431.258774a31.945094 31.945094 0 0 1-30.986741-31.945094V532.844174a68.522227 68.522227 0 0 1 19.486507-47.917641l188.316332-191.670567a53.667759 53.667759 0 0 1 77.307128 0l188.316331 191.670567a68.522227 68.522227 0 0 1 19.486508 47.917641v184.48292a31.945094 31.945094 0 0 1-30.667291 32.264545z" fill="#9C71FE" /><path d="M436.849165 495.148963h184.642646a11.819685 11.819685 0 0 1 10.22243 12.778037 11.819685 11.819685 0 0 1-10.22243 12.937764H436.849165a11.819685 11.819685 0 0 1-10.22243-12.937764 11.819685 11.819685 0 0 1 10.22243-12.778037z" fill="#F5F2FF" /><path d="M380.785525 507.288099m-12.937763 0a12.937763 12.937763 0 1 0 25.875526 0 12.937763 12.937763 0 1 0-25.875526 0Z" fill="#F5F2FF" /><path d="M436.849165 563.830916h184.642646a11.97941 11.97941 0 0 1 10.22243 12.937763 11.819685 11.819685 0 0 1-10.22243 12.937763H436.849165a11.819685 11.819685 0 0 1-10.22243-12.937763 11.97941 11.97941 0 0 1 10.22243-12.937763z" fill="#F5F2FF" /><path d="M380.785525 576.768679m-12.937763 0a12.937763 12.937763 0 1 0 25.875526 0 12.937763 12.937763 0 1 0-25.875526 0Z" fill="#F5F2FF" /><path d="M436.849165 633.311496h184.642646a11.819685 11.819685 0 0 1 10.22243 12.937763 11.819685 11.819685 0 0 1-10.22243 12.937763H436.849165a11.819685 11.819685 0 0 1-10.22243-12.937763 11.819685 11.819685 0 0 1 10.22243-12.937763z" fill="#F5F2FF" /><path d="M380.785525 646.249259m-12.937763 0a12.937763 12.937763 0 1 0 25.875526 0 12.937763 12.937763 0 1 0-25.875526 0Z" fill="#F5F2FF" /></svg>