<?xml version="1.0" standalone="no"?><!DOCTYPE svg PUBLIC "-//W3C//DTD SVG 1.1//EN" "http://www.w3.org/Graphics/SVG/1.1/DTD/svg11.dtd"><svg class="icon" width="200px" height="200.00px" viewBox="0 0 1024 1024" version="1.1" xmlns="http://www.w3.org/2000/svg"><path d="M366.24 0h292.64Q1024 0 1024 365.76v292.48Q1024 1024 658.88 1024H366.24Q0 1024 0 658.24V365.76Q0 0 366.24 0z" fill="#F4F4FE" /><path d="M738.88 317.44C609.76 316.32 544 262.88 520.48 240a13.76 13.76 0 0 0-19.36 0c-23.52 23.68-89.76 76.48-218.08 77.76 0 0-91.52 300.32 224.96 470.88h1.6a586.72 586.72 0 0 0 96-64 503.36 503.36 0 0 0 78.08-81.76 370.72 370.72 0 0 0 55.2-325.44z" fill="#8486F8" /><path d="M589.76 407.04l26.08 26.4a12.32 12.32 0 0 1 0 17.44 12.8 12.8 0 0 1-8.8 3.52h-153.12a23.04 23.04 0 0 0-23.04 22.88 22.4 22.4 0 0 0 6.56 16 23.36 23.36 0 0 0 16 6.88h117.92a48 48 0 0 1 48 48 48 48 0 0 1-48 48h-123.52l5.12 5.12a12.32 12.32 0 1 1-17.44 17.28l-26.08-26.24a12.16 12.16 0 0 1 0-17.44 12.32 12.32 0 0 1 8.64-3.52h153.28a22.88 22.88 0 0 0 22.56-23.2 22.72 22.72 0 0 0-22.24-22.4h-118.08a48 48 0 0 1-33.28-81.44 48 48 0 0 1 33.76-13.92h123.52l-5.28-5.28a12.32 12.32 0 1 1 17.44-17.28z" fill="#F4F4FE" /></svg>