<?xml version="1.0" standalone="no"?><!DOCTYPE svg PUBLIC "-//W3C//DTD SVG 1.1//EN" "http://www.w3.org/Graphics/SVG/1.1/DTD/svg11.dtd"><svg class="icon" width="200px" height="200.00px" viewBox="0 0 1024 1024" version="1.1" xmlns="http://www.w3.org/2000/svg"><path d="M365.76 0h292.48Q1024 0 1024 365.76v292.48Q1024 1024 658.24 1024H365.76Q0 1024 0 658.24V365.76Q0 0 365.76 0z" fill="#F1F8FF" /><path d="M512 274.56a238.56 238.56 0 0 0-168.64 406.08l-68.8 68.8h261.12A238.08 238.08 0 0 0 512 274.56z m-118.72 427.36l2.08-1.92 3.04 1.92zM514.24 640a96 96 0 0 1-94.88-94.88h189.92A96 96 0 0 1 514.24 640z" fill="#6FBAFF" /></svg>