<?xml version="1.0" standalone="no"?><!DOCTYPE svg PUBLIC "-//W3C//DTD SVG 1.1//EN" "http://www.w3.org/Graphics/SVG/1.1/DTD/svg11.dtd"><svg class="icon" width="200px" height="200.00px" viewBox="0 0 1024 1024" version="1.1" xmlns="http://www.w3.org/2000/svg"><path d="M365.76 0h292.48Q1024 0 1024 365.76v292.48Q1024 1024 658.24 1024H365.76Q0 1024 0 658.24V365.76Q0 0 365.76 0z" fill="#F1F8FF" /><path d="M666.4 308.48a34.88 34.88 0 0 0-33.76-25.76H395.36a34.88 34.88 0 0 0-33.6 25.28L288 565.12h448zM739.84 585.44H284.16l-4.48 124.32a29.92 29.92 0 0 0 29.44 32h405.76a29.92 29.92 0 0 0 29.44-32z m-139.52 78.72H365.76a12.96 12.96 0 1 1 0-25.76h234.56a12.96 12.96 0 1 1 0 25.76z m58.88 0a12.96 12.96 0 1 1 12.8-12.96 12.96 12.96 0 0 1-12.8 12.96z" fill="#6FBAFF" /></svg>