<?xml version="1.0" standalone="no"?><!DOCTYPE svg PUBLIC "-//W3C//DTD SVG 1.1//EN" "http://www.w3.org/Graphics/SVG/1.1/DTD/svg11.dtd"><svg class="icon" width="200px" height="200.00px" viewBox="0 0 1024 1024" version="1.1" xmlns="http://www.w3.org/2000/svg"><path d="M365.76 0h292.48Q1024 0 1024 365.76v292.48Q1024 1024 658.24 1024H365.76Q0 1024 0 658.24V365.76Q0 0 365.76 0z" fill="#F1F8FF" /><path d="M722.88 675.04H379.52a52 52 0 0 1-52-52.16V324a26.24 26.24 0 0 0-52.48 0v299.04a104.48 104.48 0 0 0 104.48 104.48h343.2a26.24 26.24 0 0 0 0-52.48z" fill="#6FBAFF" /><path d="M387.52 625.28h55.2A20.64 20.64 0 0 0 464 604.64v-150.08a20.64 20.64 0 0 0-20.64-20.64h-55.84a20.64 20.64 0 0 0-20.64 20.64v150.08a20.64 20.64 0 0 0 20.64 20.64z m145.92 0H576a27.2 27.2 0 0 0 27.04-27.2V323.68a27.2 27.2 0 0 0-27.04-27.2h-42.56a27.2 27.2 0 0 0-27.2 27.2v274.4a27.2 27.2 0 0 0 27.2 27.2z m135.52 0H720a23.2 23.2 0 0 0 23.2-23.36V407.36A23.2 23.2 0 0 0 720 384h-51.04a23.2 23.2 0 0 0-23.2 23.2v194.72a23.2 23.2 0 0 0 23.2 23.36z" fill="#6FBAFF" /></svg>