<?xml version="1.0" standalone="no"?><!DOCTYPE svg PUBLIC "-//W3C//DTD SVG 1.1//EN" "http://www.w3.org/Graphics/SVG/1.1/DTD/svg11.dtd"><svg class="icon" width="200px" height="200.00px" viewBox="0 0 1024 1024" version="1.1" xmlns="http://www.w3.org/2000/svg"><path d="M365.92 2.72h292.16Q1024 2.72 1024 366.4v291.2q0 363.68-365.28 363.68h-292.8Q0 1021.28 0 657.6V366.4Q0 2.88 365.92 2.72z" fill="#FFF0F0" /><path d="M709.92 431.04v-102.88a16 16 0 0 0-16-16h-30.88a16 16 0 0 0-16 16V368l-75.84-75.84-48-48a16 16 0 0 0-23.04 0L222.56 522.4a16 16 0 0 0 0 23.2l35.68 35.68a16 16 0 0 0 23.2 0l219.04-218.88a16 16 0 0 1 23.04 0l219.04 219.04a16 16 0 0 0 23.2 0l35.68-35.84a16 16 0 0 0 0-23.2z" fill="#FF5C64" /><path d="M524.64 411.2a16 16 0 0 0-23.2 0l-80 80h-2.24v2.24l-100.16 100.16a16 16 0 0 0-4.8 11.52V768a16 16 0 0 0 16 16h119.36a16 16 0 0 0 16-16v-146.4a16 16 0 0 1 16-16H544a16 16 0 0 1 16 16V768a16 16 0 0 0 16 16h119.36a16 16 0 0 0 16-16V605.28a21.92 21.92 0 0 0 0-5.6 16 16 0 0 0-1.92-4.16z" fill="#FF5C64" /></svg>