<?xml version="1.0" standalone="no"?><!DOCTYPE svg PUBLIC "-//W3C//DTD SVG 1.1//EN" "http://www.w3.org/Graphics/SVG/1.1/DTD/svg11.dtd"><svg class="icon" width="200px" height="200.00px" viewBox="0 0 1024 1024" version="1.1" xmlns="http://www.w3.org/2000/svg"><path d="M365.76 0h292.48Q1024 0 1024 365.76v292.48Q1024 1024 658.24 1024H365.76Q0 1024 0 658.24V365.76Q0 0 365.76 0z" fill="#F5F2FF" /><path d="M699.2 276.96H324.32a50.24 50.24 0 0 0-50.08 50.08v74.88h475.04v-74.88a50.24 50.24 0 0 0-50.08-50.08zM336 363.52a18.72 18.72 0 1 1 18.88-18.72A19.36 19.36 0 0 1 336 363.52z m62.56 0a18.72 18.72 0 0 1 0-37.44 18.72 18.72 0 0 1 0 37.44z m62.56 0A18.72 18.72 0 1 1 480 344.8a19.2 19.2 0 0 1-18.24 18.72zM274.72 434.56v262.4a50.24 50.24 0 0 0 50.08 50.08h374.88a50.24 50.24 0 0 0 50.08-50.08v-262.4z m276 112a6.08 6.08 0 0 1 2.08-4.16l4.8-4.32 7.2-5.92 8.32-6.56 7.36-5.76c2.24-1.76 3.84-2.88 4.64-3.68s4.96-2.24 6.56-1.12a6.08 6.08 0 0 1 2.72 5.12v13.44H624.64a71.68 71.68 0 0 1 24.48 6.88 68.96 68.96 0 0 1 19.84 14.24 64 64 0 0 1 13.28 21.28 64 64 0 0 1 0 48 64 64 0 0 1-13.44 20.32 67.36 67.36 0 0 1-20 14.4 70.56 70.56 0 0 1-24.64 6.88H592a13.92 13.92 0 0 1-5.6-1.12 16 16 0 0 1-4.96-2.72 16 16 0 0 1-3.68-4.16 10.24 10.24 0 0 1-1.28-4.8 9.28 9.28 0 0 1 1.28-4.96 16 16 0 0 1 3.52-4 23.36 23.36 0 0 1 4.8-2.72 17.12 17.12 0 0 1 5.6-0.96h26.08a45.44 45.44 0 0 0 16-3.2 47.04 47.04 0 0 0 13.76-8.8 42.4 42.4 0 0 0 9.28-13.12 38.24 38.24 0 0 0 3.36-16 38.88 38.88 0 0 0-3.04-15.04 42.24 42.24 0 0 0-8.32-12.64 44.16 44.16 0 0 0-26.88-11.36h-27.52v13.28a4.48 4.48 0 0 1-2.24 4.16c-1.6 0.96-4 0-7.36-1.6l-4.32-3.04-6.88-4.96-8.32-5.92-8.32-6.4-4.48-3.68a5.44 5.44 0 0 1-1.76-4.64z m-213.28 96a12.8 12.8 0 0 1 12.8-12.96h131.84a12.96 12.96 0 1 1 0 25.76h-131.84a12.8 12.8 0 0 1-12.8-11.68z m0-52.8a12.8 12.8 0 0 1 12.8-12.96h131.84a12.96 12.96 0 1 1 0 25.92h-131.84a12.8 12.8 0 0 1-12.8-11.84z m0-52.8a12.8 12.8 0 0 1 12.8-12.8h131.84a12.96 12.96 0 1 1 0 25.76h-131.84a12.8 12.8 0 0 1-12.8-11.84z" fill="#9C71FE" /></svg>