<?xml version="1.0" standalone="no"?><!DOCTYPE svg PUBLIC "-//W3C//DTD SVG 1.1//EN" "http://www.w3.org/Graphics/SVG/1.1/DTD/svg11.dtd"><svg class="icon" width="200px" height="200.00px" viewBox="0 0 1024 1024" version="1.1" xmlns="http://www.w3.org/2000/svg"><path d="M365.76 0h292.48Q1024 0 1024 365.76v292.48Q1024 1024 658.24 1024H365.76Q0 1024 0 658.24V365.76Q0 0 365.76 0z" fill="#F1F8FF" /><path d="M677.6 756.8h-59.36a64.8 64.8 0 0 1-56-32L532.48 672a65.6 65.6 0 0 1 0-65.12l29.76-51.84a64 64 0 0 1 56-32h59.36a64 64 0 0 1 56 32L763.36 608a65.6 65.6 0 0 1 0 65.12l-29.76 51.84a64 64 0 0 1-56 32z m-29.6-64a52.96 52.96 0 1 0-52.64-52.8 52.8 52.8 0 0 0 52.64 52.8zM394.4 386.72a119.68 119.68 0 0 0 240 0 119.68 119.68 0 0 0-240 0z" fill="#6FBAFF" /><path d="M539.68 552.96a8.16 8.16 0 0 0-6.4-12.32 282.24 282.24 0 0 0-201.44 64.96 268.16 268.16 0 0 0-80 123.68 8.16 8.16 0 0 0 7.84 10.4h272a8.16 8.16 0 0 0 7.04-12.32l-38.88-64a41.76 41.76 0 0 1 0-42.08z" fill="#6FBAFF" /></svg>