<?xml version="1.0" standalone="no"?><!DOCTYPE svg PUBLIC "-//W3C//DTD SVG 1.1//EN" "http://www.w3.org/Graphics/SVG/1.1/DTD/svg11.dtd"><svg class="icon" width="200px" height="200.00px" viewBox="0 0 1024 1024" version="1.1" xmlns="http://www.w3.org/2000/svg"><path d="M365.76 0h292.48Q1024 0 1024 365.76v292.48Q1024 1024 658.24 1024H365.76Q0 1024 0 658.24V365.76Q0 0 365.76 0z" fill="#F4F4FE" /><path d="M270.08 313.28m79.68 0l324.64 0q79.68 0 79.68 79.68l0 238.08q0 79.68-79.68 79.68l-324.64 0q-79.68 0-79.68-79.68l0-238.08q0-79.68 79.68-79.68Z" fill="#8486F8" /><path d="M226.72 397.6h570.56v51.2H226.72zM708.16 670.08h-130.72l16-61.76h130.72l-16 61.76z" fill="#F4F4FE" /></svg>