<?xml version="1.0" standalone="no"?><!DOCTYPE svg PUBLIC "-//W3C//DTD SVG 1.1//EN" "http://www.w3.org/Graphics/SVG/1.1/DTD/svg11.dtd"><svg class="icon" width="200px" height="200.00px" viewBox="0 0 1024 1024" version="1.1" xmlns="http://www.w3.org/2000/svg"><path d="M366.08 0h292.48Q1024 0 1024 365.76v292.48Q1024 1024 658.56 1024H366.08Q0 1024 0 658.24V365.76Q0 0 366.08 0z" fill="#F5F2FF" /><path d="M514.4 489.6A82.24 82.24 0 1 0 432 407.36a82.56 82.56 0 0 0 82.4 82.24z m51.68 14.24l-51.68 60L464 503.84a168.16 168.16 0 0 0-92.48 155.52 231.36 231.36 0 0 0 1.6 28.64 179.2 179.2 0 0 0 141.28 64A179.2 179.2 0 0 0 656 688a246.08 246.08 0 0 0 2.08-28.48 165.92 165.92 0 0 0-92-155.68z m57.92-96v5.12a73.44 73.44 0 0 0 39.68 11.2 75.04 75.04 0 0 0 75.2-75.2 76 76 0 0 0-75.2-76.96 77.44 77.44 0 0 0-73.12 56A111.04 111.04 0 0 1 624 407.36z m-264.16 16a72.48 72.48 0 0 0 43.68-14.24v-2.08a105.12 105.12 0 0 1 30.56-75.2 76 76 0 0 0-150.4 16 76.64 76.64 0 0 0 76.16 75.36z" fill="#9C71FE" /><path d="M711.52 436.8l-48 55.84-44.64-51.84a107.84 107.84 0 0 1-26.88 44.8 198.56 198.56 0 0 1 96 174.72v5.12A162.56 162.56 0 0 0 794.72 608a209.6 209.6 0 0 0 2.08-26.4 156.32 156.32 0 0 0-85.28-144.8z m-274.4 48.8a115.2 115.2 0 0 1-29.44-48.8l-48 55.84-48-55.84a157.76 157.76 0 0 0-84.32 144 227.36 227.36 0 0 0 2.4 27.2 162.88 162.88 0 0 0 112.8 57.92v-6.08a198.4 198.4 0 0 1 94.56-174.24z" fill="#9C71FE" /></svg>