<?xml version="1.0" standalone="no"?><!DOCTYPE svg PUBLIC "-//W3C//DTD SVG 1.1//EN" "http://www.w3.org/Graphics/SVG/1.1/DTD/svg11.dtd"><svg class="icon" width="200px" height="200.00px" viewBox="0 0 1024 1024" version="1.1" xmlns="http://www.w3.org/2000/svg"><path d="M366.08 0h292.48Q1024 0 1024 365.76v292.48Q1024 1024 658.56 1024H366.08Q0 1024 0 658.24V365.76Q0 0 366.08 0z" fill="#FFF6F0" /><path d="M743.84 320v424H358.4a77.44 77.44 0 0 1-77.6-77.12V358.4A76.48 76.48 0 0 1 304 304a77.92 77.92 0 0 1 55.04-22.72h307.68v307.84H358.88a39.68 39.68 0 0 0-39.84 39.52v37.12a39.84 39.84 0 0 0 39.52 39.52h346.4V320z m-77.12 307.68h-308.8v38.72h308.8z" fill="#FFA561" /></svg>