<?xml version="1.0" standalone="no"?><!DOCTYPE svg PUBLIC "-//W3C//DTD SVG 1.1//EN" "http://www.w3.org/Graphics/SVG/1.1/DTD/svg11.dtd"><svg class="icon" width="200px" height="200.00px" viewBox="0 0 1024 1024" version="1.1" xmlns="http://www.w3.org/2000/svg"><path d="M365.76 0h292.48Q1024 0 1024 365.76v292.48Q1024 1024 658.24 1024H365.76Q0 1024 0 658.24V365.76Q0 0 365.76 0z" fill="#F0FCF9" /><path d="M429.12 246.08h166.4v132.96h-166.4z m-164.16 432h100v99.68h-100z m197.44 0h99.84v99.68H462.4z m196.64 0h100v99.68h-100zM331.52 512h161.76v130.72h38.08V512h161.6v130.72h38.08V473.44H531.36v-64h-38.08v64H293.6v168.64h37.92z" fill="#5DDAC4" /></svg>